{
	"asset":{
		"generator":"Khronos glTF Blender I/O v4.0.43",
		"version":"2.0"
	},
	"scene":0,
	"scenes":[
		{
			"extras":{
				"fast64":{
					"sm64":{
						"exportType":0,
						"version":3,
						"address_converter":{
							"version":1
						},
						"combined_export":{}
					},
					"settings":{
						"internal_game_update_ver":1,
						"dont_ask_color_management":1
					},
					"renderSettings":{}
				},
				"opLargeTextureProperty":{
					"mat":{}
				},
				"f3d_type":6,
				"f3d_simple":0,
				"f3d_lib_dir":"/home/rosie/.config/blender/4.0/scripts/addons/fast64/fast64_internal/f3d/f3d_material_library.blend/NodeTree",
				"ootPreviewSettingsProperty":{
					"ootCSPreviewCSObj":{}
				}
			},
			"name":"Scene",
			"nodes":[
				0,
				1
			]
		}
	],
	"nodes":[
		{
			"extras":{
				"fast64":{
					"sm64":{
						"geo_asm":{
							"func":"",
							"param":"0"
						},
						"game_object":{
							"bparams":"0x00000000"
						},
						"version":3
					}
				}
			},
			"mesh":0,
			"name":"Room"
		},
		{
			"extras":{
				"fast64":{
					"sm64":{
						"geo_asm":{},
						"game_object":{},
						"version":3
					}
				}
			},
			"name":"DoorPos",
			"translation":[
				0,
				-9.138772964477539,
				0
			]
		}
	],
	"materials":[
		{
			"extras":{
				"rdp_settings":{},
				"combiner1":{},
				"UVanim":{
					"x":{},
					"y":{}
				},
				"tex0":{
					"tile_scroll":{}
				},
				"ootCollisionProperty":{},
				"f3d_mat":{
					"name":"",
					"combiner1":{
						"name":"",
						"A":1,
						"B":8,
						"C":4,
						"D":7,
						"A_alpha":7,
						"B_alpha":7,
						"C_alpha":7,
						"D_alpha":6
					},
					"combiner2":{
						"name":"",
						"A":8,
						"B":8,
						"C":16,
						"D":4,
						"A_alpha":7,
						"B_alpha":7,
						"C_alpha":7,
						"D_alpha":5
					},
					"tex0":{
						"tex_set":1,
						"tex":{
							"name":"square.i4.png",
							"type":"Image"
						},
						"tile_scroll":{},
						"menu":1,
						"S":{
							"mirror":1,
							"mask":4,
							"shift":0,
							"low":0.0,
							"high":15.0
						},
						"T":{
							"mirror":1,
							"mask":4,
							"shift":0,
							"low":0.0,
							"high":15.0
						},
						"tex_format":0,
						"autoprop":1
					},
					"tex1":{
						"tex_set":1,
						"tex":{}
					},
					"set_prim":1,
					"set_lights":1,
					"set_env":0,
					"set_blend":0,
					"set_key":1,
					"set_k0_5":1,
					"set_combiner":1,
					"use_default_lighting":1,
					"blend_color":[
						0.0,
						0.0,
						0.0,
						1.0
					],
					"prim_color":[
						1.0,
						1.0,
						1.0,
						1.0
					],
					"env_color":[
						1.0,
						1.0,
						1.0,
						1.0
					],
					"key_center":[
						1.0,
						1.0,
						1.0,
						1.0
					],
					"key_scale":[
						0.0,
						0.0,
						0.0
					],
					"key_width":[
						0.0,
						0.0,
						0.0
					],
					"k0":0.686274528503418,
					"k1":-0.16862745583057404,
					"k2":-0.3490196168422699,
					"k3":0.8705882430076599,
					"k4":0.4470588266849518,
					"k5":0.16470588743686676,
					"prim_lod_frac":0.0,
					"prim_lod_min":0.0,
					"default_light_color":[
						1.0,
						1.0,
						1.0,
						1.0
					],
					"ambient_light_color":[
						0.2140410989522934,
						0.2140410989522934,
						0.2140410989522934,
						1.0
					],
					"f3d_light1":null,
					"f3d_light2":null,
					"f3d_light3":null,
					"f3d_light4":null,
					"f3d_light5":null,
					"f3d_light6":null,
					"f3d_light7":null,
					"set_ao":0,
					"set_fresnel":0,
					"set_attroffs_st":0,
					"set_attroffs_z":0,
					"fog_color":[
						0.0,
						0.0,
						0.0,
						1.0
					],
					"fog_position":[
						985,
						1000
					],
					"set_fog":0,
					"use_global_fog":1,
					"rdp_settings":{
						"name":"",
						"g_zbuffer":1,
						"g_shade":1,
						"g_ambocclusion":0,
						"g_attroffset_z_enable":0,
						"g_attroffset_st_enable":0,
						"g_cull_front":0,
						"g_cull_back":1,
						"g_packed_normals":1,
						"g_lighttoalpha":0,
						"g_lighting_specular":0,
						"g_fresnel_color":0,
						"g_fresnel_alpha":0,
						"g_fog":0,
						"g_lighting":1,
						"g_tex_gen":0,
						"g_tex_gen_linear":0,
						"g_lod":0,
						"g_shade_smooth":1,
						"g_clipping":0,
						"g_mdsft_alpha_dither":2,
						"g_mdsft_rgb_dither":0,
						"g_mdsft_combkey":0,
						"g_mdsft_textconv":2,
						"g_mdsft_text_filt":0,
						"g_mdsft_textlut":0,
						"g_mdsft_textlod":0,
						"g_mdsft_textdetail":0,
						"g_mdsft_textpersp":1,
						"g_mdsft_cycletype":0,
						"g_mdsft_color_dither":1,
						"g_mdsft_pipeline":0,
						"g_mdsft_alpha_compare":0,
						"g_mdsft_zsrcsel":0,
						"clip_ratio":1,
						"set_rendermode":0,
						"rendermode_advanced_enabled":0,
						"rendermode_preset_cycle_1":1,
						"rendermode_preset_cycle_2":1,
						"aa_en":1,
						"z_cmp":1,
						"z_upd":1,
						"im_rd":1,
						"clr_on_cvg":0,
						"cvg_dst":0,
						"zmode":0,
						"cvg_x_alpha":0,
						"alpha_cvg_sel":1,
						"force_bl":0,
						"blend_p1":0,
						"blend_p2":0,
						"blend_a1":0,
						"blend_a2":0,
						"blend_m1":1,
						"blend_m2":1,
						"blend_b1":1,
						"blend_b2":1
					},
					"draw_layer":{
						"sm64":1,
						"oot":0
					},
					"presetName":"Custom",
					"UVanim0":{
						"x":{},
						"y":{}
					},
					"tex_scale":[
						1.0,
						1.0
					],
					"scale_autoprop":1,
					"set_ambient_from_light":1
				},
				"ootMaterial":{},
				"objex_bonus":{},
				"is_f3d":1,
				"mat_ver":6,
				"f3d_update_flag":0,
				"menu_tab":3
			},
			"name":"material",
			"pbrMetallicRoughness":{}
		}
	],
	"meshes":[
		{
			"name":"Room",
			"primitives":[
				{
					"attributes":{
						"COLOR_0":0,
						"POSITION":1,
						"NORMAL":2,
						"TEXCOORD_0":3
					},
					"indices":4,
					"material":0
				}
			]
		}
	],
	"accessors":[
		{
			"bufferView":0,
			"componentType":5126,
			"count":70,
			"type":"VEC4"
		},
		{
			"bufferView":1,
			"componentType":5126,
			"count":70,
			"max":[
				4.000000476837158,
				0,
				4
			],
			"min":[
				-3.999999523162842,
				-9.138772964477539,
				0
			],
			"type":"VEC3"
		},
		{
			"bufferView":2,
			"componentType":5126,
			"count":70,
			"type":"VEC3"
		},
		{
			"bufferView":3,
			"componentType":5126,
			"count":70,
			"type":"VEC2"
		},
		{
			"bufferView":4,
			"componentType":5123,
			"count":120,
			"type":"SCALAR"
		}
	],
	"bufferViews":[
		{
			"buffer":0,
			"byteLength":1120,
			"byteOffset":0,
			"target":34962
		},
		{
			"buffer":0,
			"byteLength":840,
			"byteOffset":1120,
			"target":34962
		},
		{
			"buffer":0,
			"byteLength":840,
			"byteOffset":1960,
			"target":34962
		},
		{
			"buffer":0,
			"byteLength":560,
			"byteOffset":2800,
			"target":34962
		},
		{
			"buffer":0,
			"byteLength":240,
			"byteOffset":3360,
			"target":34963
		}
	],
	"buffers":[
		{
			"byteLength":3600,
			"uri":"room01.bin"
		}
	]
}
